<svg width="270" height="274" viewBox="0 0 270 274" fill="currentColor" xmlns="http://www.w3.org/2000/svg">
<path d="M0 273.438V0H55.0781V273.438H0ZM76.1719 161.719V112.891H81.25C97.9167 112.891 108.594 106.12 113.281 92.5781C114.323 89.1927 114.844 85.6771 114.844 82.0312C114.844 68.2292 108.333 58.9844 95.3125 54.2969C91.1458 52.7344 86.4583 51.9531 81.25 51.9531H76.1719V0H84.7656C118.88 0.520833 142.839 12.6302 156.641 36.3281C163.151 47.526 166.406 60.1562 166.406 74.2188C166.146 101.042 157.292 121.615 139.844 135.938C152.865 144.271 161.198 159.375 164.844 181.25C165.104 183.854 165.365 186.328 165.625 188.672L172.266 273.438H121.484L115.625 203.906C113.542 183.073 107.552 170.182 97.6562 165.234C92.9688 163.151 87.2396 161.979 80.4688 161.719H76.1719Z" fill="currentColor"/>
<path d="M178.719 185.938L234.219 10.7812L269.219 69.2812C268.958 70.0625 240.177 167.448 208.406 273.438H204.5L178.719 185.938Z" fill="currentColor"/>
</svg>
