<svg width="450" height="469" viewBox="0 0 450 469" fill="none" xmlns="http://www.w3.org/2000/svg">
<rect y="10" width="450" height="450" rx="225" fill="black"/>
<g filter="url(#filter0_d_769_5)">
<mask id="path-2-outside-1_769_5" maskUnits="userSpaceOnUse" x="112" y="85" width="225" height="287" fill="black">
<rect fill="white" x="112" y="85" width="225" height="287"/>
<path d="M113.391 86.625H219.445C241.19 86.625 259.875 89.8802 275.5 96.3906C291.255 102.901 303.365 112.536 311.828 125.297C320.292 138.057 324.523 153.747 324.523 172.367C324.523 187.602 321.919 200.688 316.711 211.625C311.633 222.432 304.406 231.482 295.031 238.773C285.786 245.935 274.914 251.664 262.414 255.961L243.859 265.727H151.672L151.281 220.023H219.836C230.122 220.023 238.651 218.201 245.422 214.555C252.193 210.909 257.271 205.831 260.656 199.32C264.172 192.81 265.93 185.258 265.93 176.664C265.93 167.549 264.237 159.672 260.852 153.031C257.466 146.391 252.323 141.312 245.422 137.797C238.521 134.281 229.862 132.523 219.445 132.523H171.984V371H113.391V86.625ZM272.375 371L207.531 244.242L269.445 243.852L335.07 368.266V371H272.375Z"/>
</mask>
<path d="M113.391 86.625H219.445C241.19 86.625 259.875 89.8802 275.5 96.3906C291.255 102.901 303.365 112.536 311.828 125.297C320.292 138.057 324.523 153.747 324.523 172.367C324.523 187.602 321.919 200.688 316.711 211.625C311.633 222.432 304.406 231.482 295.031 238.773C285.786 245.935 274.914 251.664 262.414 255.961L243.859 265.727H151.672L151.281 220.023H219.836C230.122 220.023 238.651 218.201 245.422 214.555C252.193 210.909 257.271 205.831 260.656 199.32C264.172 192.81 265.93 185.258 265.93 176.664C265.93 167.549 264.237 159.672 260.852 153.031C257.466 146.391 252.323 141.312 245.422 137.797C238.521 134.281 229.862 132.523 219.445 132.523H171.984V371H113.391V86.625ZM272.375 371L207.531 244.242L269.445 243.852L335.07 368.266V371H272.375Z" fill="white"/>
<path d="M113.391 86.625V85.625H112.391V86.625H113.391ZM275.5 96.3906L275.115 97.3137L275.118 97.3148L275.5 96.3906ZM311.828 125.297L312.661 124.744L311.828 125.297ZM316.711 211.625L315.808 211.195L315.806 211.2L316.711 211.625ZM295.031 238.773L295.644 239.564L295.645 239.563L295.031 238.773ZM262.414 255.961L262.089 255.015L262.016 255.04L261.948 255.076L262.414 255.961ZM243.859 265.727V266.727H244.106L244.325 266.611L243.859 265.727ZM151.672 265.727L150.672 265.735L150.68 266.727H151.672V265.727ZM151.281 220.023V219.023H150.273L150.281 220.032L151.281 220.023ZM260.656 199.32L259.776 198.845L259.773 198.852L259.769 198.859L260.656 199.32ZM171.984 132.523V131.523H170.984V132.523H171.984ZM171.984 371V372H172.984V371H171.984ZM113.391 371H112.391V372H113.391V371ZM272.375 371L271.485 371.455L271.763 372H272.375V371ZM207.531 244.242L207.525 243.242L205.902 243.252L206.641 244.698L207.531 244.242ZM269.445 243.852L270.33 243.385L270.046 242.848L269.439 242.852L269.445 243.852ZM335.07 368.266H336.07V368.018L335.955 367.799L335.07 368.266ZM335.07 371V372H336.07V371H335.07ZM113.391 87.625H219.445V85.625H113.391V87.625ZM219.445 87.625C241.094 87.625 259.642 90.8663 275.115 97.3137L275.885 95.4675C260.108 88.8941 241.286 85.625 219.445 85.625V87.625ZM275.118 97.3148C290.711 103.758 302.654 113.274 310.995 125.85L312.661 124.744C304.076 111.799 291.8 102.044 275.882 95.4664L275.118 97.3148ZM310.995 125.85C319.328 138.414 323.523 153.901 323.523 172.367H325.523C325.523 153.594 321.255 137.701 312.661 124.744L310.995 125.85ZM323.523 172.367C323.523 187.49 320.938 200.422 315.808 211.195L317.614 212.055C322.9 200.953 325.523 187.713 325.523 172.367H323.523ZM315.806 211.2C310.794 221.865 303.667 230.79 294.417 237.984L295.645 239.563C305.145 232.174 312.471 222.999 317.616 212.05L315.806 211.2ZM294.419 237.983C285.271 245.069 274.499 250.749 262.089 255.015L262.739 256.907C275.329 252.579 286.302 246.801 295.644 239.564L294.419 237.983ZM261.948 255.076L243.394 264.842L244.325 266.611L262.88 256.846L261.948 255.076ZM243.859 264.727H151.672V266.727H243.859V264.727ZM152.672 265.718L152.281 220.015L150.281 220.032L150.672 265.735L152.672 265.718ZM151.281 221.023H219.836V219.023H151.281V221.023ZM219.836 221.023C230.234 221.023 238.939 219.181 245.896 215.435L244.948 213.674C238.364 217.22 230.011 219.023 219.836 219.023V221.023ZM245.896 215.435C252.834 211.699 258.061 206.479 261.543 199.782L259.769 198.859C256.481 205.183 251.551 210.119 244.948 213.674L245.896 215.435ZM261.536 199.795C265.142 193.117 266.93 185.397 266.93 176.664H264.93C264.93 185.119 263.201 192.503 259.776 198.845L261.536 199.795ZM266.93 176.664C266.93 167.426 265.214 159.386 261.742 152.577L259.961 153.485C263.26 159.957 264.93 167.673 264.93 176.664H266.93ZM261.742 152.577C258.257 145.741 252.957 140.513 245.876 136.906L244.968 138.688C251.689 142.112 256.675 147.041 259.961 153.485L261.742 152.577ZM245.876 136.906C238.794 133.298 229.968 131.523 219.445 131.523V133.523C229.756 133.523 238.247 135.264 244.968 138.688L245.876 136.906ZM219.445 131.523H171.984V133.523H219.445V131.523ZM170.984 132.523V371H172.984V132.523H170.984ZM171.984 370H113.391V372H171.984V370ZM114.391 371V86.625H112.391V371H114.391ZM273.265 370.545L208.422 243.787L206.641 244.698L271.485 371.455L273.265 370.545ZM207.538 245.242L269.452 244.852L269.439 242.852L207.525 243.242L207.538 245.242ZM268.561 244.318L334.186 368.732L335.955 367.799L270.33 243.385L268.561 244.318ZM334.07 368.266V371H336.07V368.266H334.07ZM335.07 370H272.375V372H335.07V370Z" fill="#808080" mask="url(#path-2-outside-1_769_5)"/>
</g>
<defs>
<filter id="filter0_d_769_5" x="112.391" y="85.625" width="233.68" height="296.375" filterUnits="userSpaceOnUse" color-interpolation-filters="sRGB">
<feFlood flood-opacity="0" result="BackgroundImageFix"/>
<feColorMatrix in="SourceAlpha" type="matrix" values="0 0 0 0 0 0 0 0 0 0 0 0 0 0 0 0 0 0 127 0" result="hardAlpha"/>
<feOffset dx="10" dy="10"/>
<feComposite in2="hardAlpha" operator="out"/>
<feColorMatrix type="matrix" values="0 0 0 0 1 0 0 0 0 0.216741 0 0 0 0 0.216741 0 0 0 0.49 0"/>
<feBlend mode="normal" in2="BackgroundImageFix" result="effect1_dropShadow_769_5"/>
<feBlend mode="normal" in="SourceGraphic" in2="effect1_dropShadow_769_5" result="shape"/>
</filter>
</defs>
</svg>
